# xmcd
#
# Track frame offsets:
#	150
#	22374
#	39096
#	56527
#	72876
#	86835
#	107880
#	124031
#	139665
#	152635
#	169951
#	181455
#	193438
#	208161
#	226490
#
# Disc length: 3246 seconds
#
# Revision: 0
# Processed by: cddbd v1.5.2PL0 Copyright (c) Steve Scherf et al.
# Submitted via: EasyCDDAExtractor 12.0.1.1
#
DISCID=de0cac0f
DTITLE=Various Artist - Μεγάλα Ερωτικά
DYEAR=2012
DGENRE=
TTITLE0=Καίτη Γαρμπή - Βιάστηκα
TTITLE1=Νατάσα Θεοδωρίδου - Αχ! Και να' τανε
TTITLE2=Πασχάλης Τερζής - Το έτερον σου ήμισυ
TTITLE3=Κέλλυ Κελεκίδου - Λάθος αγάπη
TTITLE4=Λένα Παπαδοπούλου - Όλα τα 'δωσα για σένα
TTITLE5=Γιώργος Αλκαίος - Συγχώρεσε με
TTITLE6=Άντζυ Σαμίου - Γι' αυτά τα μάτια
TTITLE7=Χρήστος Πάζης - Επικίνδυνε ερωτά μου
TTITLE8=Πίτσα Παπαδοπούλου - Λατρεία
TTITLE9=Φανή Δρακοπούλου - Σ'αυτή να πας
TTITLE10=Σταμάτης Γονίδης - Γιατί κλαις
TTITLE11=Λευτέρης Πανταζής - Σε νοσταλγώ
TTITLE12=Στέφανος Κορκολής - Και βγάλε το κραγιόν σου
TTITLE13=Ειρήνη Μερκούρη - Έχεις όσα ζητώ
TTITLE14=Άννα Βίσση - Νίκος Καρβέλας - Εμείς
EXTD=
EXTT0=
EXTT1=
EXTT2=
EXTT3=
EXTT4=
EXTT5=
EXTT6=
EXTT7=
EXTT8=
EXTT9=
EXTT10=
EXTT11=
EXTT12=
EXTT13=
EXTT14=
PLAYORDER=
